<?xml version="1.0" standalone="no"?>
<!DOCTYPE svg PUBLIC "-//W3C//DTD SVG 20010904//EN"
 "http://www.w3.org/TR/2001/REC-SVG-20010904/DTD/svg10.dtd">
<svg version="1.0" xmlns="http://www.w3.org/2000/svg"
 width="512.000000pt" height="512.000000pt" viewBox="0 0 512.000000 512.000000"
 preserveAspectRatio="xMidYMid meet">
<metadata>
Created by potrace 1.14, written by Peter Selinger 2001-2017
</metadata>
<g transform="translate(0.000000,512.000000) scale(0.100000,-0.100000)"
fill="#000000" stroke="none">
<path d="M4420 4980 c-272 -58 -679 -234 -720 -311 -20 -36 0 -38 73 -4 163
75 390 142 578 169 129 19 183 20 197 4 15 -19 32 -156 32 -262 0 -316 -81
-667 -215 -935 -135 -267 -290 -445 -722 -823 -112 -98 -212 -180 -521 -426
-48 -38 -73 -71 -74 -99 0 -10 4 -63 11 -118 22 -193 -12 -320 -108 -406 -70
-63 -252 -154 -417 -209 -113 -37 -244 -62 -244 -46 0 15 23 50 95 142 148
189 200 306 193 434 -3 50 -12 89 -26 117 -32 62 -113 137 -187 174 -60 29
-70 31 -142 27 -66 -4 -90 -10 -153 -43 -63 -32 -99 -63 -227 -193 -84 -84
-157 -151 -162 -147 -18 10 -13 174 9 302 38 223 99 391 166 459 68 67 197
110 364 121 52 3 104 9 115 13 14 5 60 81 135 221 288 542 544 938 729 1132
35 37 62 69 60 71 -12 11 -200 69 -309 95 -651 158 -1368 -3 -1890 -426 -93
-75 -261 -244 -335 -338 -294 -367 -475 -867 -475 -1310 l0 -111 55 -18 c168
-53 298 -215 354 -440 9 -39 22 -71 28 -73 6 -2 26 23 44 57 43 80 98 136 167
168 82 39 194 38 274 -1 102 -50 168 -156 189 -302 13 -92 27 -114 61 -98 63
29 388 287 711 566 157 135 187 148 232 102 22 -21 26 -33 22 -58 -3 -18 -52
-113 -109 -212 -232 -401 -408 -740 -408 -787 0 -26 11 -29 132 -31 103 -3
119 -6 178 -33 99 -47 144 -101 175 -208 40 -136 -23 -288 -159 -383 -40 -27
-26 -43 39 -43 182 0 372 -83 464 -204 56 -74 66 -96 50 -107 -23 -15 21 -11
127 11 422 86 782 277 1099 582 192 184 305 336 414 555 172 346 241 636 241
1013 -1 338 -66 636 -204 933 l-46 98 56 92 c205 339 308 706 308 1102 0 270
-37 430 -106 454 -44 16 -120 12 -218 -9z"/>
<path d="M4435 4558 c-72 -159 -212 -423 -322 -608 l-81 -136 5 -85 c6 -94
-10 -170 -51 -245 -24 -42 -16 -53 18 -25 12 10 16 11 16 1 0 -10 3 -10 15 0
13 10 15 9 15 -11 0 -19 2 -21 10 -9 8 13 10 12 10 -4 0 -16 3 -15 21 7 11 15
23 26 27 25 34 -10 142 145 227 326 111 237 174 497 175 722 0 90 -9 174 -19
174 -4 0 -34 -59 -66 -132z"/>
<path d="M3523 4050 c-170 -34 -298 -215 -278 -392 9 -74 63 -185 111 -227
146 -129 371 -124 505 10 123 123 138 329 34 471 -81 111 -230 166 -372 138z"/>
<path d="M2673 133 c9 -2 23 -2 30 0 6 3 -1 5 -18 5 -16 0 -22 -2 -12 -5z"/>
<path d="M2308 123 c7 -3 16 -2 19 1 4 3 -2 6 -13 5 -11 0 -14 -3 -6 -6z"/>
<path d="M2548 123 c12 -2 30 -2 40 0 9 3 -1 5 -23 4 -22 0 -30 -2 -17 -4z"/>
</g>
</svg>
